<svg width="372" height="499" viewBox="0 0 372 499" fill="none" xmlns="http://www.w3.org/2000/svg">
<path d="M272.109 0C272.109 0 315.832 107.652 128.442 179.962C26.6189 219.242 -51.5874 319.921 41.7909 475.444C49.5241 405.928 82.6837 252.653 225.268 217.677C225.268 217.677 92.5592 267.619 80.8361 493.687C149.028 503.322 308.957 509.797 356.439 370.119C419.14 185.573 272.109 0 272.109 0Z" fill="#3A7F0D"/>
<path d="M81.1894 491.797C226.476 433.763 332.19 297.811 346.78 135.518C317.078 55.3299 273.089 0 273.089 0C273.089 0 316.97 107.445 128.905 179.615C26.7148 218.82 -51.7732 319.304 41.9415 474.528C49.7026 405.146 82.9817 252.166 226.08 217.258C226.072 217.259 93.2809 266.98 81.1894 491.797Z" fill="#49A010"/>
<path d="M25.22 182.847C32.1844 182.847 37.8302 177.201 37.8302 170.237C37.8302 163.272 32.1844 157.627 25.22 157.627C18.2556 157.627 12.6099 163.272 12.6099 170.237C12.6099 177.201 18.2556 182.847 25.22 182.847Z" fill="#3A7F0D"/>
<path d="M68.4283 166.038C73.8011 166.038 78.1567 161.682 78.1567 156.309C78.1567 150.937 73.8011 146.581 68.4283 146.581C63.0555 146.581 58.7 150.937 58.7 156.309C58.7 161.682 63.0555 166.038 68.4283 166.038Z" fill="#49A010"/>
<path d="M59.6724 88.2099C73.1045 88.2099 83.9933 77.3211 83.9933 63.8891C83.9933 50.4571 73.1045 39.5682 59.6724 39.5682C46.2404 39.5682 35.3516 50.4571 35.3516 63.8891C35.3516 77.3211 46.2404 88.2099 59.6724 88.2099Z" fill="#49A010"/>
<path d="M134.581 127.125C138.88 127.125 142.364 123.64 142.364 119.342C142.364 115.043 138.88 111.559 134.581 111.559C130.283 111.559 126.799 115.043 126.799 119.342C126.799 123.64 130.283 127.125 134.581 127.125Z" fill="#49A010"/>
<path d="M199.77 97.9384C212.128 97.9384 222.146 87.9206 222.146 75.563C222.146 63.2054 212.128 53.1876 199.77 53.1876C187.413 53.1876 177.395 63.2054 177.395 75.563C177.395 87.9206 187.413 97.9384 199.77 97.9384Z" fill="#49A010"/>
</svg>
