<svg width="248" height="73" viewBox="0 0 248 73" fill="none" xmlns="http://www.w3.org/2000/svg">
<path d="M66.81 30.33C65.11 30.33 63.52 30.12 62.04 29.7C60.56 29.28 59.3 28.7 58.26 27.96L59.64 24.3C60.32 24.76 61.04 25.15 61.8 25.47C62.56 25.79 63.36 26.04 64.2 26.22C65.04 26.38 65.92 26.46 66.84 26.46C68.28 26.46 69.3 26.24 69.9 25.8C70.52 25.36 70.83 24.8 70.83 24.12C70.83 23.5 70.62 23.03 70.2 22.71C69.8 22.37 69.06 22.08 67.98 21.84L64.44 21.12C62.5 20.72 61.05 20.04 60.09 19.08C59.13 18.12 58.65 16.84 58.65 15.24C58.65 13.88 59.01 12.7 59.73 11.7C60.45 10.7 61.46 9.92 62.76 9.36C64.08 8.8 65.62 8.52 67.38 8.52C68.88 8.52 70.28 8.73 71.58 9.15C72.88 9.57 73.95 10.17 74.79 10.95L73.41 14.37C72.59 13.71 71.67 13.22 70.65 12.9C69.65 12.56 68.53 12.39 67.29 12.39C65.99 12.39 64.99 12.62 64.29 13.08C63.61 13.54 63.27 14.17 63.27 14.97C63.27 15.57 63.48 16.06 63.9 16.44C64.32 16.8 65.06 17.09 66.12 17.31L69.6 18C71.58 18.4 73.05 19.07 74.01 20.01C74.97 20.95 75.45 22.2 75.45 23.76C75.45 25.08 75.09 26.23 74.37 27.21C73.67 28.19 72.67 28.96 71.37 29.52C70.09 30.06 68.57 30.33 66.81 30.33ZM86.2561 30.33C83.6161 30.33 81.5561 29.62 80.0761 28.2C78.5961 26.78 77.8561 24.85 77.8561 22.41C77.8561 20.83 78.1661 19.45 78.7861 18.27C79.4261 17.09 80.3061 16.17 81.4261 15.51C82.5661 14.83 83.8961 14.49 85.4161 14.49C86.9161 14.49 88.1661 14.81 89.1661 15.45C90.1861 16.09 90.9461 16.99 91.4461 18.15C91.9661 19.29 92.2261 20.62 92.2261 22.14V23.19H81.5761V20.94H88.9261L88.4161 21.36C88.4161 20.1 88.1561 19.15 87.6361 18.51C87.1361 17.85 86.4061 17.52 85.4461 17.52C84.3861 17.52 83.5661 17.91 82.9861 18.69C82.4261 19.47 82.1461 20.59 82.1461 22.05V22.53C82.1461 24.01 82.5061 25.11 83.2261 25.83C83.9661 26.55 85.0261 26.91 86.4061 26.91C87.2261 26.91 87.9961 26.81 88.7161 26.61C89.4561 26.39 90.1561 26.05 90.8161 25.59L92.0761 28.59C91.3161 29.15 90.4361 29.58 89.4361 29.88C88.4561 30.18 87.3961 30.33 86.2561 30.33ZM95.1002 30V14.79H99.6302V30H95.1002ZM94.9202 12.3V8.07H99.7802V12.3H94.9202ZM108.943 30.33C107.583 30.33 106.343 30.18 105.223 29.88C104.103 29.58 103.153 29.16 102.373 28.62L103.543 25.62C104.323 26.1 105.183 26.48 106.123 26.76C107.083 27.04 108.033 27.18 108.973 27.18C109.853 27.18 110.503 27.04 110.923 26.76C111.343 26.48 111.553 26.1 111.553 25.62C111.553 25.22 111.413 24.91 111.133 24.69C110.873 24.47 110.463 24.31 109.903 24.21L106.813 23.64C105.513 23.38 104.523 22.9 103.843 22.2C103.163 21.5 102.823 20.59 102.823 19.47C102.823 18.49 103.083 17.63 103.603 16.89C104.143 16.13 104.913 15.54 105.913 15.12C106.913 14.7 108.083 14.49 109.423 14.49C110.563 14.49 111.643 14.63 112.663 14.91C113.683 15.19 114.553 15.62 115.273 16.2L114.043 19.11C113.423 18.65 112.703 18.28 111.883 18C111.083 17.72 110.313 17.58 109.573 17.58C108.613 17.58 107.923 17.74 107.503 18.06C107.083 18.36 106.873 18.75 106.873 19.23C106.873 19.59 106.993 19.89 107.233 20.13C107.493 20.37 107.883 20.55 108.403 20.67L111.523 21.24C112.863 21.48 113.883 21.93 114.583 22.59C115.283 23.25 115.633 24.16 115.633 25.32C115.633 26.38 115.353 27.28 114.793 28.02C114.233 28.76 113.443 29.33 112.423 29.73C111.423 30.13 110.263 30.33 108.943 30.33ZM118.45 30V7.92H122.98V17.64H122.53C123.01 16.62 123.72 15.84 124.66 15.3C125.6 14.76 126.68 14.49 127.9 14.49C129.68 14.49 131.01 15.01 131.89 16.05C132.77 17.07 133.21 18.64 133.21 20.76V30H128.68V20.97C128.68 19.91 128.48 19.15 128.08 18.69C127.7 18.23 127.1 18 126.28 18C125.28 18 124.48 18.31 123.88 18.93C123.28 19.55 122.98 20.38 122.98 21.42V30H118.45ZM136.848 30V14.79H141.378V30H136.848ZM136.668 12.3V8.07H141.528V12.3H136.668ZM145.081 30V18.75C145.081 18.11 145.061 17.46 145.021 16.8C144.981 16.12 144.921 15.45 144.841 14.79H149.191L149.521 17.61H149.161C149.661 16.61 150.371 15.84 151.291 15.3C152.211 14.76 153.281 14.49 154.501 14.49C156.281 14.49 157.611 15.01 158.491 16.05C159.391 17.07 159.841 18.66 159.841 20.82V30H155.311V21.03C155.311 19.93 155.111 19.15 154.711 18.69C154.311 18.23 153.711 18 152.911 18C151.911 18 151.111 18.32 150.511 18.96C149.911 19.58 149.611 20.42 149.611 21.48V30H145.081ZM169.449 30.33C168.129 30.33 166.959 30.01 165.939 29.37C164.939 28.73 164.149 27.82 163.569 26.64C163.009 25.46 162.729 24.04 162.729 22.38C162.729 20.74 163.009 19.33 163.569 18.15C164.129 16.97 164.919 16.07 165.939 15.45C166.959 14.81 168.129 14.49 169.449 14.49C170.649 14.49 171.719 14.78 172.659 15.36C173.619 15.92 174.259 16.68 174.579 17.64H174.189V7.92H178.719V30H174.249V27.03H174.639C174.319 28.03 173.679 28.83 172.719 29.43C171.759 30.03 170.669 30.33 169.449 30.33ZM170.799 26.91C171.839 26.91 172.679 26.54 173.319 25.8C173.959 25.06 174.279 23.92 174.279 22.38C174.279 20.84 173.959 19.71 173.319 18.99C172.679 18.27 171.839 17.91 170.799 17.91C169.759 17.91 168.909 18.27 168.249 18.99C167.609 19.71 167.289 20.84 167.289 22.38C167.289 23.92 167.609 25.06 168.249 25.8C168.909 26.54 169.759 26.91 170.799 26.91ZM189.634 30.33C188.014 30.33 186.604 30.01 185.404 29.37C184.224 28.71 183.304 27.79 182.644 26.61C182.004 25.43 181.684 24.02 181.684 22.38C181.684 20.76 182.004 19.36 182.644 18.18C183.304 17 184.224 16.09 185.404 15.45C186.604 14.81 188.014 14.49 189.634 14.49C191.254 14.49 192.664 14.81 193.864 15.45C195.064 16.09 195.984 17 196.624 18.18C197.284 19.36 197.614 20.76 197.614 22.38C197.614 24.02 197.284 25.43 196.624 26.61C195.984 27.79 195.064 28.71 193.864 29.37C192.664 30.01 191.254 30.33 189.634 30.33ZM189.634 26.91C190.674 26.91 191.494 26.54 192.094 25.8C192.714 25.06 193.024 23.92 193.024 22.38C193.024 20.84 192.714 19.71 192.094 18.99C191.494 18.27 190.674 17.91 189.634 17.91C188.594 17.91 187.764 18.27 187.144 18.99C186.544 19.71 186.244 20.84 186.244 22.38C186.244 23.92 186.544 25.06 187.144 25.8C187.764 26.54 188.594 26.91 189.634 26.91Z" fill="black"/>
<path d="M56.67 64L66.39 42.85H70.26L80.1 64H75.36L72.81 58.12L74.64 59.41H62.07L63.93 58.12L61.38 64H56.67ZM68.31 47.77L64.44 56.95L63.63 55.81H73.08L72.39 56.95L68.43 47.77H68.31ZM88.7972 64.33C87.1772 64.33 85.7572 64.01 84.5372 63.37C83.3172 62.73 82.3772 61.81 81.7172 60.61C81.0572 59.41 80.7272 57.99 80.7272 56.35C80.7272 54.69 81.0572 53.28 81.7172 52.12C82.3972 50.94 83.3372 50.04 84.5372 49.42C85.7572 48.8 87.1772 48.49 88.7972 48.49C89.8172 48.49 90.8072 48.64 91.7672 48.94C92.7472 49.24 93.5472 49.66 94.1672 50.2L92.8472 53.32C92.3472 52.86 91.7672 52.52 91.1072 52.3C90.4672 52.06 89.8472 51.94 89.2472 51.94C88.0272 51.94 87.0772 52.32 86.3972 53.08C85.7172 53.84 85.3772 54.94 85.3772 56.38C85.3772 57.82 85.7172 58.92 86.3972 59.68C87.0772 60.44 88.0272 60.82 89.2472 60.82C89.8272 60.82 90.4372 60.71 91.0772 60.49C91.7372 60.27 92.3272 59.94 92.8472 59.5L94.1672 62.59C93.5272 63.13 92.7172 63.56 91.7372 63.88C90.7772 64.18 89.7972 64.33 88.7972 64.33ZM102.261 64.33C100.361 64.33 98.9509 63.81 98.0309 62.77C97.1109 61.71 96.6509 60.11 96.6509 57.97V48.79H101.181V57.97C101.181 58.93 101.371 59.64 101.751 60.1C102.151 60.56 102.761 60.79 103.581 60.79C104.481 60.79 105.221 60.48 105.801 59.86C106.401 59.22 106.701 58.37 106.701 57.31V48.79H111.231V64H106.821V61.09H107.241C106.781 62.11 106.121 62.91 105.261 63.49C104.421 64.05 103.421 64.33 102.261 64.33ZM114.964 70.48V52.75C114.964 52.11 114.944 51.46 114.904 50.8C114.864 50.12 114.804 49.45 114.724 48.79H119.074L119.434 51.76H119.104C119.404 50.76 120.034 49.97 120.994 49.39C121.954 48.79 123.054 48.49 124.294 48.49C125.614 48.49 126.774 48.81 127.774 49.45C128.774 50.07 129.554 50.97 130.114 52.15C130.694 53.33 130.984 54.74 130.984 56.38C130.984 58.04 130.694 59.46 130.114 60.64C129.554 61.82 128.774 62.73 127.774 63.37C126.774 64.01 125.614 64.33 124.294 64.33C123.074 64.33 121.984 64.04 121.024 63.46C120.084 62.88 119.454 62.11 119.134 61.15H119.494V70.48H114.964ZM122.914 60.91C123.974 60.91 124.824 60.54 125.464 59.8C126.104 59.06 126.424 57.92 126.424 56.38C126.424 54.84 126.104 53.71 125.464 52.99C124.824 52.27 123.974 51.91 122.914 51.91C121.874 51.91 121.024 52.27 120.364 52.99C119.724 53.71 119.404 54.84 119.404 56.38C119.404 57.92 119.724 59.06 120.364 59.8C121.024 60.54 121.874 60.91 122.914 60.91ZM139.439 64.33C137.539 64.33 136.129 63.81 135.209 62.77C134.289 61.71 133.829 60.11 133.829 57.97V48.79H138.359V57.97C138.359 58.93 138.549 59.64 138.929 60.1C139.329 60.56 139.939 60.79 140.759 60.79C141.659 60.79 142.399 60.48 142.979 59.86C143.579 59.22 143.879 58.37 143.879 57.31V48.79H148.409V64H143.999V61.09H144.419C143.959 62.11 143.299 62.91 142.439 63.49C141.599 64.05 140.599 64.33 139.439 64.33ZM152.141 64V52.75C152.141 52.11 152.121 51.46 152.081 50.8C152.041 50.12 151.981 49.45 151.901 48.79H156.251L156.581 51.61H156.221C156.721 50.61 157.431 49.84 158.351 49.3C159.271 48.76 160.341 48.49 161.561 48.49C163.341 48.49 164.671 49.01 165.551 50.05C166.451 51.07 166.901 52.66 166.901 54.82V64H162.371V55.03C162.371 53.93 162.171 53.15 161.771 52.69C161.371 52.23 160.771 52 159.971 52C158.971 52 158.171 52.32 157.571 52.96C156.971 53.58 156.671 54.42 156.671 55.48V64H152.141ZM177.86 64.33C176.24 64.33 174.82 64.01 173.6 63.37C172.38 62.73 171.44 61.81 170.78 60.61C170.12 59.41 169.79 57.99 169.79 56.35C169.79 54.69 170.12 53.28 170.78 52.12C171.46 50.94 172.4 50.04 173.6 49.42C174.82 48.8 176.24 48.49 177.86 48.49C178.88 48.49 179.87 48.64 180.83 48.94C181.81 49.24 182.61 49.66 183.23 50.2L181.91 53.32C181.41 52.86 180.83 52.52 180.17 52.3C179.53 52.06 178.91 51.94 178.31 51.94C177.09 51.94 176.14 52.32 175.46 53.08C174.78 53.84 174.44 54.94 174.44 56.38C174.44 57.82 174.78 58.92 175.46 59.68C176.14 60.44 177.09 60.82 178.31 60.82C178.89 60.82 179.5 60.71 180.14 60.49C180.8 60.27 181.39 59.94 181.91 59.5L183.23 62.59C182.59 63.13 181.78 63.56 180.8 63.88C179.84 64.18 178.86 64.33 177.86 64.33ZM193.001 64.33C191.021 64.33 189.531 63.84 188.531 62.86C187.531 61.86 187.031 60.37 187.031 58.39V52.18H184.151V48.79H187.031V45.07L191.561 43.96V48.79H195.461V52.18H191.561V58.15C191.561 59.11 191.761 59.77 192.161 60.13C192.561 60.49 193.071 60.67 193.691 60.67C194.071 60.67 194.381 60.65 194.621 60.61C194.881 60.55 195.151 60.47 195.431 60.37V63.88C195.051 64.04 194.651 64.15 194.231 64.21C193.811 64.29 193.401 64.33 193.001 64.33ZM203.306 64.33C201.406 64.33 199.996 63.81 199.076 62.77C198.156 61.71 197.696 60.11 197.696 57.97V48.79H202.226V57.97C202.226 58.93 202.416 59.64 202.796 60.1C203.196 60.56 203.806 60.79 204.626 60.79C205.526 60.79 206.266 60.48 206.846 59.86C207.446 59.22 207.746 58.37 207.746 57.31V48.79H212.276V64H207.866V61.09H208.286C207.826 62.11 207.166 62.91 206.306 63.49C205.466 64.05 204.466 64.33 203.306 64.33ZM215.978 64V52.81C215.978 52.15 215.958 51.48 215.918 50.8C215.898 50.12 215.848 49.45 215.768 48.79H220.118L220.628 53.23H219.938C220.138 52.15 220.458 51.26 220.898 50.56C221.358 49.86 221.918 49.34 222.578 49C223.258 48.66 224.028 48.49 224.888 48.49C225.268 48.49 225.568 48.51 225.788 48.55C226.008 48.57 226.228 48.62 226.448 48.7L226.418 52.69C225.998 52.51 225.638 52.4 225.338 52.36C225.058 52.3 224.698 52.27 224.258 52.27C223.418 52.27 222.718 52.43 222.158 52.75C221.618 53.07 221.208 53.54 220.928 54.16C220.668 54.78 220.538 55.53 220.538 56.41V64H215.978ZM235.729 64.33C233.089 64.33 231.029 63.62 229.549 62.2C228.069 60.78 227.329 58.85 227.329 56.41C227.329 54.83 227.639 53.45 228.259 52.27C228.899 51.09 229.779 50.17 230.899 49.51C232.039 48.83 233.369 48.49 234.889 48.49C236.389 48.49 237.639 48.81 238.639 49.45C239.659 50.09 240.419 50.99 240.919 52.15C241.439 53.29 241.699 54.62 241.699 56.14V57.19H231.049V54.94H238.399L237.889 55.36C237.889 54.1 237.629 53.15 237.109 52.51C236.609 51.85 235.879 51.52 234.919 51.52C233.859 51.52 233.039 51.91 232.459 52.69C231.899 53.47 231.619 54.59 231.619 56.05V56.53C231.619 58.01 231.979 59.11 232.699 59.83C233.439 60.55 234.499 60.91 235.879 60.91C236.699 60.91 237.469 60.81 238.189 60.61C238.929 60.39 239.629 60.05 240.289 59.59L241.549 62.59C240.789 63.15 239.909 63.58 238.909 63.88C237.929 64.18 236.869 64.33 235.729 64.33Z" fill="black"/>
<path d="M33.8515 2C33.8515 2 39.2909 15.3998 15.9788 24.4003C3.31151 29.2896 -6.4177 41.8214 5.19897 61.1798C6.16102 52.5269 10.2862 33.4484 28.0244 29.0948C28.0244 29.0948 11.5148 35.3112 10.0564 63.4505C18.5397 64.6498 38.4356 65.4557 44.3426 48.0696C52.1428 25.0988 33.8515 2 33.8515 2Z" fill="#3A7F0D"/>
<path d="M10.1003 63.2152C28.1746 55.9916 41.3259 39.0693 43.141 18.8682C39.446 8.88705 33.9735 2 33.9735 2C33.9735 2 39.4325 15.3739 16.0364 24.3572C3.32344 29.237 -6.44082 41.7446 5.21771 61.0657C6.18322 52.4295 10.3233 33.3878 28.1254 29.0426C28.1244 29.0427 11.6046 35.2317 10.1003 63.2152Z" fill="#49A010"/>
<path d="M3.13761 24.7595C4.00401 24.7595 4.70637 24.0567 4.70637 23.1899C4.70637 22.323 4.00401 21.6202 3.13761 21.6202C2.27121 21.6202 1.56885 22.323 1.56885 23.1899C1.56885 24.0567 2.27121 24.7595 3.13761 24.7595Z" fill="#3A7F0D"/>
<path d="M8.5125 22.6672C9.1809 22.6672 9.72275 22.125 9.72275 21.4563C9.72275 20.7875 9.1809 20.2454 8.5125 20.2454C7.84409 20.2454 7.30225 20.7875 7.30225 21.4563C7.30225 22.125 7.84409 22.6672 8.5125 22.6672Z" fill="#49A010"/>
<path d="M7.42333 12.9797C9.09434 12.9797 10.449 11.6244 10.449 9.95245C10.449 8.28053 9.09434 6.92517 7.42333 6.92517C5.75232 6.92517 4.39771 8.28053 4.39771 9.95245C4.39771 11.6244 5.75232 12.9797 7.42333 12.9797Z" fill="#49A010"/>
<path d="M16.7426 17.8235C17.2774 17.8235 17.7109 17.3898 17.7109 16.8547C17.7109 16.3197 17.2774 15.886 16.7426 15.886C16.2079 15.886 15.7744 16.3197 15.7744 16.8547C15.7744 17.3898 16.2079 17.8235 16.7426 17.8235Z" fill="#49A010"/>
<path d="M24.8522 14.1906C26.3895 14.1906 27.6358 12.9437 27.6358 11.4055C27.6358 9.8673 26.3895 8.62036 24.8522 8.62036C23.3149 8.62036 22.0686 9.8673 22.0686 11.4055C22.0686 12.9437 23.3149 14.1906 24.8522 14.1906Z" fill="#49A010"/>
</svg>
