<svg width="260" height="254" viewBox="0 0 260 254" fill="none" xmlns="http://www.w3.org/2000/svg">
<path d="M128.2 73.69C112.718 34.242 94.73 10.247 88.861 3.006C87.805 1.701 85.885 1.523 84.599 2.602C83.395 3.612 83.17 5.373 84.082 6.654C95.782 23.09 118.658 65.566 118.658 104.488C118.658 132.991 109.329 147.227 109.4 160.38C109.456 170.775 117.817 179.201 128.201 179.201C136.363 179.201 145.756 172.892 147.557 161.355C149.744 147.344 143.607 112.948 128.2 73.69ZM168.368 91.611C162.989 91.611 157.912 93.97 154.439 98.082C151.017 102.134 149.56 107.438 150.443 112.635C151.502 118.865 153.454 124.501 155.52 130.469C158.704 139.662 161.996 149.168 161.996 161.609C161.996 179.844 147.73 194.127 129.517 194.127C111.305 194.127 97.04 179.843 97.04 161.609C97.04 149.439 100.532 140.075 103.91 131.021C106.202 124.875 108.368 119.07 109.448 112.621C110.318 107.431 108.853 102.133 105.428 98.087C101.945 93.972 96.858 91.612 91.47 91.612H2V252.104H258V91.611H168.368ZM163.466 105.706C164.689 104.257 166.476 103.427 168.368 103.427H246.184V138.224C239.745 139.343 235.788 142.446 232.486 145.043C228.997 147.786 226.475 149.769 220.899 149.769C215.33 149.769 212.81 147.787 209.322 145.045C205.212 141.814 200.097 137.792 190.433 137.792C181.139 137.792 176.058 141.514 172.027 144.672C170.618 137.966 168.581 132.077 166.685 126.604C164.783 121.112 162.986 115.924 162.091 110.658C161.683 108.249 162.778 106.521 163.466 105.706ZM91.471 103.427C93.376 103.427 95.177 104.263 96.41 105.72C97.1 106.536 98.198 108.263 97.796 110.668C96.902 116 94.929 121.291 92.84 126.891C90.818 132.312 88.645 138.144 87.14 144.78C83.086 141.599 77.995 137.791 68.587 137.791C58.928 137.791 53.815 141.812 49.706 145.044C46.219 147.786 43.699 149.768 38.129 149.768C32.559 149.768 30.04 147.786 26.552 145.044C23.418 142.579 19.692 139.66 13.817 138.411V103.427H91.471V103.427ZM13.815 240.288V150.753C15.763 151.598 17.366 152.852 19.246 154.331C23.355 157.563 28.468 161.584 38.127 161.584C47.787 161.584 52.9 157.563 57.008 154.331C60.495 151.589 63.015 149.607 68.585 149.607C74.159 149.607 76.678 151.587 80.164 154.326C81.694 155.528 83.353 156.823 85.322 157.985C85.264 159.171 85.224 160.373 85.224 161.61C85.224 186.47 104.68 205.944 129.517 205.944C154.355 205.944 173.811 186.47 173.811 161.61C173.811 160.371 173.774 159.166 173.721 157.977C175.682 156.817 177.336 155.526 178.861 154.327C182.348 151.588 184.867 149.608 190.433 149.608C196.009 149.608 198.53 151.591 202.02 154.334C206.129 157.565 211.242 161.585 220.9 161.585C230.564 161.585 235.68 157.563 239.789 154.331C241.971 152.616 243.775 151.198 246.184 150.377V240.29H13.815V240.288Z" fill="black"/>
<rect x="5" y="95" width="97" height="54" rx="27" fill="black"/>
<rect width="17" height="11" rx="5.5" transform="matrix(1 0 0 -1 27 154)" fill="black"/>
<rect width="17" height="11" rx="5.5" transform="matrix(1 0 0 -1 213 154)" fill="black"/>
<rect x="157" y="95" width="97" height="54" rx="27" fill="black"/>
</svg>
