<?xml version="1.0" encoding="iso-8859-1"?>
<!-- Generator: Adobe Illustrator 19.0.0, SVG Export Plug-In . SVG Version: 6.00 Build 0)  -->
<svg version="1.1" id="Layer_1" xmlns="http://www.w3.org/2000/svg" xmlns:xlink="http://www.w3.org/1999/xlink" x="0px" y="0px"
	 viewBox="0 0 500.007 500.007" style="enable-background:new 0 0 500.007 500.007;" xml:space="preserve">
<g>
	<g>
		<path d="M405.007,98.646c-0.312,0-0.848,0.016-1.568,0.048c-1.352,0.056-3.456,0.14-6.156,0.14
			c-26.368,0.004-71.912-8.104-80.688-62.444c-0.184-1.16-0.888-2.176-1.896-2.76c-1.016-0.584-2.248-0.688-3.34-0.276
			l-43.348,16.292c-1.688,0.632-2.728,2.336-2.512,4.124c6.436,53.928,51.492,70.44,70.004,74.976
			c-6.908,7.608-17.128,23.592-17.656,51.908c-2.428,131.284-87.332,141.488-113.292,141.492c-25.688,0-51.732-7.7-71.448-21.12
			c-2.612-1.776-5.416-3.796-8.404-5.944c-18.028-12.956-42.708-30.708-71.9-30.708c-17.708,0-34.988,6.708-51.348,19.928
			c-1.652,1.336-1.94,3.748-0.644,5.428l15.156,19.688c0.64,0.836,1.604,1.38,2.652,1.5c1.048,0.132,2.1-0.188,2.924-0.856
			c9.112-7.452,18.348-11.232,27.456-11.232c18.732,0,32.496,15.988,36.316,20.948c-1.972,6.924-5.188,23.308,2.56,38.988
			c13.696,27.716,89.528,108.136,200.012,108.136c55.396,0,108.396-23.556,149.228-66.32c39.964-41.86,62.892-98.048,62.892-154.144
			C500.007,152.514,465.387,98.646,405.007,98.646z"/>
	</g>
</g>
<g>
</g>
<g>
</g>
<g>
</g>
<g>
</g>
<g>
</g>
<g>
</g>
<g>
</g>
<g>
</g>
<g>
</g>
<g>
</g>
<g>
</g>
<g>
</g>
<g>
</g>
<g>
</g>
<g>
</g>
</svg>
