<svg width="342" height="320" viewBox="0 0 342 320" fill="none" xmlns="http://www.w3.org/2000/svg">
<path d="M142.173 199.718C63.6534 199.718 0 220.468 0 254.716C0 288.965 63.6525 294.041 142.173 294.041C220.691 294.041 284.347 288.965 284.347 254.716C284.346 208.91 220.691 199.718 142.173 199.718Z" fill="#494949"/>
<path d="M130.874 213.125C71.6316 202.756 16.9428 232.415 12.4206 258.254C7.89745 284.093 190.114 223.495 130.874 213.125Z" fill="#5F6060"/>
<path d="M149.414 115.781C82.831 115.781 28.8564 131.258 28.8564 163.86C28.8564 196.459 82.8319 205.566 149.414 205.566C215.995 205.566 269.97 206.314 269.97 173.714C269.971 141.113 215.995 115.781 149.414 115.781Z" fill="#535454"/>
<path d="M139.832 128.543C89.5964 118.672 43.2218 146.904 39.3867 171.5C35.5534 196.097 190.066 138.413 139.832 128.543Z" fill="#5F6060"/>
<path d="M133.836 48.0874C82.7801 48.0874 41.3923 55.1298 41.3923 83.6127C41.3923 112.096 82.7811 126.529 133.836 126.529C184.892 126.529 226.28 122.308 226.28 93.8256C226.28 54.0485 184.891 48.0874 133.836 48.0874Z" fill="#494949"/>
<path d="M126.488 59.2373C87.9672 50.6134 52.409 75.278 49.4675 96.7674C46.5277 118.257 165.009 67.8602 126.488 59.2373Z" fill="#5F6060"/>
<path d="M153.548 0C118.824 0 90.6741 6.18165 90.6741 31.1091C90.6741 50.481 118.824 53.3522 153.548 53.3522C188.275 53.3522 216.426 43.8554 216.426 24.4835C216.426 5.11071 188.275 0 153.548 0Z" fill="#565656"/>
<path d="M148.552 7.58308C122.352 1.7168 98.167 18.4944 96.1659 33.1094C94.1667 47.7254 174.752 13.4484 148.552 7.58308Z" fill="#5F6060"/>
<path d="M270.595 177.73C258.005 177.705 247.788 185.177 247.75 203.73C247.723 217.391 257.87 244.886 270.461 244.911C283.05 244.937 293.309 216.53 293.335 203.822C293.371 185.269 283.187 177.755 270.595 177.73Z" fill="#FFC648"/>
<path d="M270.133 215.074C264.455 215.063 259.845 216.667 259.829 225.039C259.811 233.407 266.65 245.369 270.072 245.376C273.641 245.383 280.373 233.448 280.39 225.082C280.406 216.708 275.811 215.086 270.133 215.074Z" fill="#FFD77D"/>
<path d="M340.857 240.315C339.235 227.83 330.489 218.676 312.092 221.062C298.545 222.82 272.61 236.472 274.229 248.957C275.85 261.444 305.354 267.904 317.956 266.27C336.355 263.882 342.475 252.8 340.857 240.315Z" fill="#FFC648"/>
<path d="M303.771 244.734C303.039 239.104 300.847 234.744 292.544 235.822C284.245 236.899 273.279 245.24 273.72 248.633C274.179 252.171 286.891 257.289 295.188 256.211C303.493 255.135 304.501 250.367 303.771 244.734Z" fill="#FFD77D"/>
<path d="M314.624 282.194C307.563 270.502 284.626 252.259 273.848 258.766C263.07 265.277 269.035 294.885 275.606 305.762C285.198 321.644 297.805 322.783 308.58 316.275C319.359 309.765 324.218 298.075 314.624 282.194Z" fill="#FFC648"/>
<path d="M293.247 270.243C288.92 263.081 276.869 256.4 273.941 258.169C270.888 260.014 271.32 273.711 275.646 280.873C279.974 288.04 284.747 287.043 289.606 284.108C294.467 281.171 297.574 277.409 293.247 270.243Z" fill="#FFD77D"/>
<path d="M263.71 258.398C252.826 252.067 229.715 271.51 223.325 282.495C213.996 298.532 219.047 310.14 229.929 316.469C240.811 322.801 253.4 321.453 262.727 305.416C269.596 293.607 274.594 264.73 263.71 258.398Z" fill="#FFC648"/>
<path d="M264.278 258.193C261.196 256.399 249.387 263.351 245.181 270.583C240.97 277.822 244.135 281.528 249.043 284.383C253.951 287.239 258.744 288.161 262.953 280.923C267.161 273.69 267.238 259.913 264.278 258.193Z" fill="#FFD77D"/>
<path d="M227.943 218.9C209.659 215.75 200.542 224.531 198.406 236.94C196.267 249.345 201.921 260.672 220.204 263.823C233.666 266.142 262.474 260.752 264.611 248.344C266.749 235.935 240.465 221.058 227.943 218.9Z" fill="#FFC648"/>
<path d="M246.727 235.228C238.477 233.806 236.105 238.066 235.141 243.663C234.178 249.257 234.987 254.07 243.238 255.491C251.484 256.911 264.422 252.178 265.003 248.804C265.608 245.288 254.974 236.649 246.727 235.228Z" fill="#FFD77D"/>
<path d="M269.472 240.614C262.267 240.599 256.41 246.151 256.397 253.006C256.384 259.862 262.218 265.437 269.422 265.452C276.632 265.467 282.492 259.915 282.505 253.058C282.52 246.203 276.682 240.628 269.472 240.614Z" fill="#FFD77D"/>
<path d="M269.465 245.399C264.712 245.39 260.848 248.801 260.839 253.014C260.83 257.23 264.681 260.656 269.434 260.666C274.192 260.675 278.056 257.264 278.065 253.049C278.073 248.836 274.222 245.41 269.465 245.399Z" fill="#FD9D28"/>
</svg>
