<svg width="661" height="126" viewBox="0 0 661 126" fill="none" xmlns="http://www.w3.org/2000/svg">
<path d="M41.14 3.4V43H30.82V3.4H41.14ZM15.7 3.4V43H5.38V3.4H15.7ZM36.34 19.06V27.04H10.42V19.06H36.34ZM63.6555 43.6C60.3355 43.6 57.4555 42.98 55.0155 41.74C52.6155 40.5 50.7555 38.72 49.4355 36.4C48.1155 34.08 47.4555 31.28 47.4555 28C47.4555 24.72 48.1155 21.92 49.4355 19.6C50.7555 17.28 52.5955 15.5 54.9555 14.26C57.3555 13.02 60.0955 12.4 63.1755 12.4C66.3355 12.4 69.0155 13.02 71.2155 14.26C73.4555 15.46 75.1555 17.14 76.3155 19.3C77.4755 21.42 78.0555 23.86 78.0555 26.62C78.0555 27.34 78.0355 28.06 77.9955 28.78C77.9555 29.5 77.8955 30.1 77.8155 30.58H54.0555V25.12H73.3155L68.4555 26.98C68.4555 24.58 68.0155 22.74 67.1355 21.46C66.2955 20.18 64.9755 19.54 63.1755 19.54C61.8955 19.54 60.7955 19.84 59.8755 20.44C58.9955 21.04 58.3155 21.98 57.8355 23.26C57.3955 24.54 57.1755 26.18 57.1755 28.18C57.1755 30.14 57.4355 31.74 57.9555 32.98C58.4755 34.18 59.2155 35.06 60.1755 35.62C61.1355 36.14 62.2955 36.4 63.6555 36.4C65.1755 36.4 66.3755 36.1 67.2555 35.5C68.1755 34.9 68.8555 34.06 69.2955 32.98L77.4555 35.68C76.8955 37.4 75.9155 38.86 74.5155 40.06C73.1555 41.22 71.5155 42.1 69.5955 42.7C67.7155 43.3 65.7355 43.6 63.6555 43.6ZM100.502 23.98C100.502 22.58 100.102 21.48 99.3016 20.68C98.5416 19.84 97.5016 19.42 96.1816 19.42C94.8616 19.42 93.7216 19.76 92.7616 20.44C91.8416 21.08 91.2016 22.24 90.8416 23.92L82.2016 21.88C82.7616 19 84.2416 16.7 86.6416 14.98C89.0416 13.26 92.4216 12.4 96.7816 12.4C99.7016 12.4 102.182 12.84 104.222 13.72C106.302 14.56 107.882 15.84 108.962 17.56C110.082 19.24 110.642 21.32 110.642 23.8V34.78C110.642 36.34 111.342 37.12 112.742 37.12C113.462 37.12 114.042 37.04 114.482 36.88L113.882 42.7C112.682 43.26 111.222 43.54 109.502 43.54C107.942 43.54 106.562 43.3 105.362 42.82C104.162 42.3 103.222 41.54 102.542 40.54C101.862 39.5 101.522 38.2 101.522 36.64V36.28L102.662 35.86C102.662 37.58 102.142 39.02 101.102 40.18C100.102 41.34 98.7816 42.2 97.1416 42.76C95.5416 43.32 93.8616 43.6 92.1016 43.6C90.0616 43.6 88.2816 43.28 86.7616 42.64C85.2416 42 84.0616 41.08 83.2216 39.88C82.4216 38.64 82.0216 37.12 82.0216 35.32C82.0216 33.16 82.6616 31.38 83.9416 29.98C85.2616 28.54 87.3216 27.54 90.1216 26.98L101.462 24.64L101.402 30.04L95.6416 31.24C94.4416 31.48 93.5416 31.84 92.9416 32.32C92.3816 32.76 92.1016 33.44 92.1016 34.36C92.1016 35.24 92.4216 35.9 93.0616 36.34C93.7016 36.78 94.4616 37 95.3416 37C96.0216 37 96.6616 36.9 97.2616 36.7C97.9016 36.5 98.4616 36.2 98.9416 35.8C99.4216 35.36 99.8016 34.82 100.082 34.18C100.362 33.54 100.502 32.78 100.502 31.9V23.98ZM128.588 0.279999V32.8C128.588 34.12 128.808 35.06 129.248 35.62C129.688 36.18 130.428 36.46 131.468 36.46C132.068 36.46 132.568 36.42 132.968 36.34C133.368 36.26 133.848 36.14 134.408 35.98L133.748 42.1C133.028 42.54 132.088 42.9 130.928 43.18C129.768 43.46 128.628 43.6 127.508 43.6C124.308 43.6 121.988 42.86 120.548 41.38C119.108 39.9 118.388 37.48 118.388 34.12V0.279999H128.588ZM149.68 3.46V32.32C149.68 33.76 150.02 34.8 150.7 35.44C151.42 36.04 152.4 36.34 153.64 36.34C154.6 36.34 155.42 36.24 156.1 36.04C156.82 35.8 157.46 35.46 158.02 35.02L159.1 41.32C158.1 42.04 156.84 42.6 155.32 43C153.8 43.4 152.24 43.6 150.64 43.6C148.36 43.6 146.38 43.28 144.7 42.64C143.06 42 141.78 40.98 140.86 39.58C139.98 38.18 139.52 36.32 139.48 34V6.28L149.68 3.46ZM158.62 13V20.26H134.32V13H158.62ZM164.035 43V0.279999H174.235V18.46C175.115 16.46 176.375 14.96 178.015 13.96C179.655 12.92 181.555 12.4 183.715 12.4C185.795 12.4 187.595 12.8 189.115 13.6C190.675 14.4 191.895 15.58 192.775 17.14C193.655 18.7 194.095 20.66 194.095 23.02V43H183.895V25.84C183.895 23.68 183.495 22.2 182.695 21.4C181.935 20.56 180.915 20.14 179.635 20.14C178.675 20.14 177.775 20.38 176.935 20.86C176.095 21.34 175.435 22.1 174.955 23.14C174.475 24.18 174.235 25.54 174.235 27.22V43H164.035ZM215.462 12.4C218.502 12.4 221.022 12.84 223.022 13.72C225.062 14.56 226.642 15.7 227.762 17.14C228.922 18.54 229.642 20.06 229.922 21.7L220.502 24.82C220.222 23.1 219.702 21.82 218.942 20.98C218.222 20.1 217.162 19.66 215.762 19.66C214.482 19.66 213.402 19.96 212.522 20.56C211.682 21.12 211.042 22.04 210.602 23.32C210.162 24.56 209.942 26.16 209.942 28.12C209.942 30.08 210.182 31.68 210.662 32.92C211.142 34.12 211.822 35 212.702 35.56C213.582 36.08 214.622 36.34 215.822 36.34C216.822 36.34 217.642 36.16 218.282 35.8C218.962 35.4 219.522 34.84 219.962 34.12C220.402 33.4 220.682 32.52 220.802 31.48L229.982 34.42C229.702 36.18 228.942 37.76 227.702 39.16C226.502 40.52 224.902 41.6 222.902 42.4C220.902 43.2 218.562 43.6 215.882 43.6C212.602 43.6 209.742 43 207.302 41.8C204.862 40.56 202.982 38.78 201.662 36.46C200.342 34.1 199.682 31.28 199.682 28C199.682 24.72 200.342 21.92 201.662 19.6C202.982 17.24 204.822 15.46 207.182 14.26C209.582 13.02 212.342 12.4 215.462 12.4ZM252.025 23.98C252.025 22.58 251.625 21.48 250.825 20.68C250.065 19.84 249.025 19.42 247.705 19.42C246.385 19.42 245.245 19.76 244.285 20.44C243.365 21.08 242.725 22.24 242.365 23.92L233.725 21.88C234.285 19 235.765 16.7 238.165 14.98C240.565 13.26 243.945 12.4 248.305 12.4C251.225 12.4 253.705 12.84 255.745 13.72C257.825 14.56 259.405 15.84 260.485 17.56C261.605 19.24 262.165 21.32 262.165 23.8V34.78C262.165 36.34 262.865 37.12 264.265 37.12C264.985 37.12 265.565 37.04 266.005 36.88L265.405 42.7C264.205 43.26 262.745 43.54 261.025 43.54C259.465 43.54 258.085 43.3 256.885 42.82C255.685 42.3 254.745 41.54 254.065 40.54C253.385 39.5 253.045 38.2 253.045 36.64V36.28L254.185 35.86C254.185 37.58 253.665 39.02 252.625 40.18C251.625 41.34 250.305 42.2 248.665 42.76C247.065 43.32 245.385 43.6 243.625 43.6C241.585 43.6 239.805 43.28 238.285 42.64C236.765 42 235.585 41.08 234.745 39.88C233.945 38.64 233.545 37.12 233.545 35.32C233.545 33.16 234.185 31.38 235.465 29.98C236.785 28.54 238.845 27.54 241.645 26.98L252.985 24.64L252.925 30.04L247.165 31.24C245.965 31.48 245.065 31.84 244.465 32.32C243.905 32.76 243.625 33.44 243.625 34.36C243.625 35.24 243.945 35.9 244.585 36.34C245.225 36.78 245.985 37 246.865 37C247.545 37 248.185 36.9 248.785 36.7C249.425 36.5 249.985 36.2 250.465 35.8C250.945 35.36 251.325 34.82 251.605 34.18C251.885 33.54 252.025 32.78 252.025 31.9V23.98ZM270.031 43V13H279.031L279.451 19.48C280.211 17.24 281.331 15.5 282.811 14.26C284.331 13.02 286.251 12.4 288.571 12.4C289.331 12.4 289.971 12.46 290.491 12.58C291.051 12.7 291.491 12.86 291.811 13.06L290.791 21.46C290.391 21.3 289.871 21.18 289.231 21.1C288.631 20.98 287.891 20.92 287.011 20.92C285.811 20.92 284.691 21.18 283.651 21.7C282.611 22.22 281.771 23 281.131 24.04C280.531 25.04 280.231 26.32 280.231 27.88V43H270.031ZM310.101 43.6C306.781 43.6 303.901 42.98 301.461 41.74C299.061 40.5 297.201 38.72 295.881 36.4C294.561 34.08 293.901 31.28 293.901 28C293.901 24.72 294.561 21.92 295.881 19.6C297.201 17.28 299.041 15.5 301.401 14.26C303.801 13.02 306.541 12.4 309.621 12.4C312.781 12.4 315.461 13.02 317.661 14.26C319.901 15.46 321.601 17.14 322.761 19.3C323.921 21.42 324.501 23.86 324.501 26.62C324.501 27.34 324.481 28.06 324.441 28.78C324.401 29.5 324.341 30.1 324.261 30.58H300.501V25.12H319.761L314.901 26.98C314.901 24.58 314.461 22.74 313.581 21.46C312.741 20.18 311.421 19.54 309.621 19.54C308.341 19.54 307.241 19.84 306.321 20.44C305.441 21.04 304.761 21.98 304.281 23.26C303.841 24.54 303.621 26.18 303.621 28.18C303.621 30.14 303.881 31.74 304.401 32.98C304.921 34.18 305.661 35.06 306.621 35.62C307.581 36.14 308.741 36.4 310.101 36.4C311.621 36.4 312.821 36.1 313.701 35.5C314.621 34.9 315.301 34.06 315.741 32.98L323.901 35.68C323.341 37.4 322.361 38.86 320.961 40.06C319.601 41.22 317.961 42.1 316.041 42.7C314.161 43.3 312.181 43.6 310.101 43.6ZM359.446 3.46V32.32C359.446 33.76 359.786 34.8 360.466 35.44C361.186 36.04 362.166 36.34 363.406 36.34C364.366 36.34 365.186 36.24 365.866 36.04C366.586 35.8 367.226 35.46 367.786 35.02L368.866 41.32C367.866 42.04 366.606 42.6 365.086 43C363.566 43.4 362.006 43.6 360.406 43.6C358.126 43.6 356.146 43.28 354.466 42.64C352.826 42 351.546 40.98 350.626 39.58C349.746 38.18 349.286 36.32 349.246 34V6.28L359.446 3.46ZM368.386 13V20.26H344.086V13H368.386ZM373.801 43V0.279999H384.001V18.46C384.881 16.46 386.141 14.96 387.781 13.96C389.421 12.92 391.321 12.4 393.481 12.4C395.561 12.4 397.361 12.8 398.881 13.6C400.441 14.4 401.661 15.58 402.541 17.14C403.421 18.7 403.861 20.66 403.861 23.02V43H393.661V25.84C393.661 23.68 393.261 22.2 392.461 21.4C391.701 20.56 390.681 20.14 389.401 20.14C388.441 20.14 387.541 20.38 386.701 20.86C385.861 21.34 385.201 22.1 384.721 23.14C384.241 24.18 384.001 25.54 384.001 27.22V43H373.801ZM427.748 23.98C427.748 22.58 427.348 21.48 426.548 20.68C425.788 19.84 424.748 19.42 423.428 19.42C422.108 19.42 420.968 19.76 420.008 20.44C419.088 21.08 418.448 22.24 418.088 23.92L409.448 21.88C410.008 19 411.488 16.7 413.888 14.98C416.288 13.26 419.668 12.4 424.028 12.4C426.948 12.4 429.428 12.84 431.468 13.72C433.548 14.56 435.128 15.84 436.208 17.56C437.328 19.24 437.888 21.32 437.888 23.8V34.78C437.888 36.34 438.588 37.12 439.988 37.12C440.708 37.12 441.288 37.04 441.728 36.88L441.128 42.7C439.928 43.26 438.468 43.54 436.748 43.54C435.188 43.54 433.808 43.3 432.608 42.82C431.408 42.3 430.468 41.54 429.788 40.54C429.108 39.5 428.768 38.2 428.768 36.64V36.28L429.908 35.86C429.908 37.58 429.388 39.02 428.348 40.18C427.348 41.34 426.028 42.2 424.388 42.76C422.788 43.32 421.108 43.6 419.348 43.6C417.308 43.6 415.528 43.28 414.008 42.64C412.488 42 411.308 41.08 410.468 39.88C409.668 38.64 409.268 37.12 409.268 35.32C409.268 33.16 409.908 31.38 411.188 29.98C412.508 28.54 414.568 27.54 417.368 26.98L428.708 24.64L428.648 30.04L422.888 31.24C421.688 31.48 420.788 31.84 420.188 32.32C419.628 32.76 419.348 33.44 419.348 34.36C419.348 35.24 419.668 35.9 420.308 36.34C420.948 36.78 421.708 37 422.588 37C423.268 37 423.908 36.9 424.508 36.7C425.148 36.5 425.708 36.2 426.188 35.8C426.668 35.36 427.048 34.82 427.328 34.18C427.608 33.54 427.748 32.78 427.748 31.9V23.98ZM457.122 3.46V32.32C457.122 33.76 457.462 34.8 458.142 35.44C458.862 36.04 459.842 36.34 461.082 36.34C462.042 36.34 462.862 36.24 463.542 36.04C464.262 35.8 464.902 35.46 465.462 35.02L466.542 41.32C465.542 42.04 464.282 42.6 462.762 43C461.242 43.4 459.682 43.6 458.082 43.6C455.802 43.6 453.822 43.28 452.142 42.64C450.502 42 449.222 40.98 448.302 39.58C447.422 38.18 446.962 36.32 446.922 34V6.28L457.122 3.46ZM466.062 13V20.26H441.762V13H466.062ZM500.013 3.46V32.32C500.013 33.76 500.353 34.8 501.033 35.44C501.753 36.04 502.733 36.34 503.973 36.34C504.933 36.34 505.753 36.24 506.433 36.04C507.153 35.8 507.793 35.46 508.353 35.02L509.433 41.32C508.433 42.04 507.173 42.6 505.653 43C504.133 43.4 502.573 43.6 500.973 43.6C498.693 43.6 496.713 43.28 495.033 42.64C493.393 42 492.113 40.98 491.193 39.58C490.313 38.18 489.853 36.32 489.813 34V6.28L500.013 3.46ZM508.953 13V20.26H484.653V13H508.953ZM513.664 43V13H522.664L523.084 19.48C523.844 17.24 524.964 15.5 526.444 14.26C527.964 13.02 529.884 12.4 532.204 12.4C532.964 12.4 533.604 12.46 534.124 12.58C534.684 12.7 535.124 12.86 535.444 13.06L534.424 21.46C534.024 21.3 533.504 21.18 532.864 21.1C532.264 20.98 531.524 20.92 530.644 20.92C529.444 20.92 528.324 21.18 527.284 21.7C526.244 22.22 525.404 23 524.764 24.04C524.164 25.04 523.864 26.32 523.864 27.88V43H513.664ZM553.734 43.6C550.414 43.6 547.534 42.98 545.094 41.74C542.694 40.5 540.834 38.72 539.514 36.4C538.194 34.08 537.534 31.28 537.534 28C537.534 24.72 538.194 21.92 539.514 19.6C540.834 17.28 542.674 15.5 545.034 14.26C547.434 13.02 550.174 12.4 553.254 12.4C556.414 12.4 559.094 13.02 561.294 14.26C563.534 15.46 565.234 17.14 566.394 19.3C567.554 21.42 568.134 23.86 568.134 26.62C568.134 27.34 568.114 28.06 568.074 28.78C568.034 29.5 567.974 30.1 567.894 30.58H544.134V25.12H563.394L558.534 26.98C558.534 24.58 558.094 22.74 557.214 21.46C556.374 20.18 555.054 19.54 553.254 19.54C551.974 19.54 550.874 19.84 549.954 20.44C549.074 21.04 548.394 21.98 547.914 23.26C547.474 24.54 547.254 26.18 547.254 28.18C547.254 30.14 547.514 31.74 548.034 32.98C548.554 34.18 549.294 35.06 550.254 35.62C551.214 36.14 552.374 36.4 553.734 36.4C555.254 36.4 556.454 36.1 557.334 35.5C558.254 34.9 558.934 34.06 559.374 32.98L567.534 35.68C566.974 37.4 565.994 38.86 564.594 40.06C563.234 41.22 561.594 42.1 559.674 42.7C557.794 43.3 555.814 43.6 553.734 43.6ZM590.58 23.98C590.58 22.58 590.18 21.48 589.38 20.68C588.62 19.84 587.58 19.42 586.26 19.42C584.94 19.42 583.8 19.76 582.84 20.44C581.92 21.08 581.28 22.24 580.92 23.92L572.28 21.88C572.84 19 574.32 16.7 576.72 14.98C579.12 13.26 582.5 12.4 586.86 12.4C589.78 12.4 592.26 12.84 594.3 13.72C596.38 14.56 597.96 15.84 599.04 17.56C600.16 19.24 600.72 21.32 600.72 23.8V34.78C600.72 36.34 601.42 37.12 602.82 37.12C603.54 37.12 604.12 37.04 604.56 36.88L603.96 42.7C602.76 43.26 601.3 43.54 599.58 43.54C598.02 43.54 596.64 43.3 595.44 42.82C594.24 42.3 593.3 41.54 592.62 40.54C591.94 39.5 591.6 38.2 591.6 36.64V36.28L592.74 35.86C592.74 37.58 592.22 39.02 591.18 40.18C590.18 41.34 588.86 42.2 587.22 42.76C585.62 43.32 583.94 43.6 582.18 43.6C580.14 43.6 578.36 43.28 576.84 42.64C575.32 42 574.14 41.08 573.3 39.88C572.5 38.64 572.1 37.12 572.1 35.32C572.1 33.16 572.74 31.38 574.02 29.98C575.34 28.54 577.4 27.54 580.2 26.98L591.54 24.64L591.48 30.04L585.72 31.24C584.52 31.48 583.62 31.84 583.02 32.32C582.46 32.76 582.18 33.44 582.18 34.36C582.18 35.24 582.5 35.9 583.14 36.34C583.78 36.78 584.54 37 585.42 37C586.1 37 586.74 36.9 587.34 36.7C587.98 36.5 588.54 36.2 589.02 35.8C589.5 35.36 589.88 34.82 590.16 34.18C590.44 33.54 590.58 32.78 590.58 31.9V23.98ZM619.954 3.46V32.32C619.954 33.76 620.294 34.8 620.974 35.44C621.694 36.04 622.674 36.34 623.914 36.34C624.874 36.34 625.694 36.24 626.374 36.04C627.094 35.8 627.734 35.46 628.294 35.02L629.374 41.32C628.374 42.04 627.114 42.6 625.594 43C624.074 43.4 622.514 43.6 620.914 43.6C618.634 43.6 616.654 43.28 614.974 42.64C613.334 42 612.054 40.98 611.134 39.58C610.254 38.18 609.794 36.32 609.754 34V6.28L619.954 3.46ZM628.894 13V20.26H604.594V13H628.894ZM646.205 43.6C643.205 43.6 640.405 43.12 637.805 42.16C635.245 41.16 633.125 39.74 631.445 37.9L636.245 32.26C637.245 33.54 638.565 34.62 640.205 35.5C641.885 36.34 643.745 36.76 645.785 36.76C647.025 36.76 648.045 36.58 648.845 36.22C649.645 35.86 650.045 35.3 650.045 34.54C650.045 33.98 649.845 33.54 649.445 33.22C649.045 32.86 648.245 32.56 647.045 32.32L642.845 31.48C639.085 30.72 636.405 29.6 634.805 28.12C633.245 26.6 632.465 24.62 632.465 22.18C632.465 20.54 632.965 18.98 633.965 17.5C634.965 15.98 636.505 14.76 638.585 13.84C640.665 12.88 643.325 12.4 646.565 12.4C649.605 12.4 652.285 12.84 654.605 13.72C656.925 14.6 658.765 15.88 660.125 17.56L655.265 23.08C654.305 21.88 653.065 20.94 651.545 20.26C650.025 19.58 648.505 19.24 646.985 19.24C646.025 19.24 645.205 19.34 644.525 19.54C643.885 19.7 643.405 19.94 643.085 20.26C642.765 20.58 642.605 20.98 642.605 21.46C642.605 21.98 642.845 22.44 643.325 22.84C643.845 23.2 644.785 23.52 646.145 23.8L651.605 24.88C654.685 25.44 656.905 26.46 658.265 27.94C659.625 29.42 660.305 31.2 660.305 33.28C660.305 35.24 659.785 37 658.745 38.56C657.705 40.12 656.145 41.36 654.065 42.28C651.985 43.16 649.365 43.6 646.205 43.6ZM34.84 83L23.92 113C22.8 116.16 21.58 118.68 20.26 120.56C18.94 122.44 17.38 123.8 15.58 124.64C13.78 125.48 11.62 125.9 9.1 125.9C7.42 125.9 5.88 125.72 4.48 125.36C3.08 125 1.86 124.5 0.82 123.86L2.86 116.96C3.58 117.48 4.34 117.84 5.14 118.04C5.94 118.28 6.96 118.4 8.2 118.4C9.36 118.4 10.3 118.2 11.02 117.8C11.78 117.4 12.38 116.64 12.82 115.52L13.6 113.66L10.12 105.5L1.12 83H12.34L16.96 100.1L18.4 106.46L20.08 99.86L24.7 83H34.84ZM52.2213 82.4C55.3813 82.4 58.1413 83.02 60.5013 84.26C62.9013 85.46 64.7613 87.24 66.0813 89.6C67.4413 91.92 68.1213 94.72 68.1213 98C68.1213 101.28 67.4413 104.1 66.0813 106.46C64.7613 108.78 62.9013 110.56 60.5013 111.8C58.1413 113 55.3813 113.6 52.2213 113.6C49.1413 113.6 46.4013 113 44.0013 111.8C41.6013 110.56 39.7213 108.78 38.3613 106.46C37.0413 104.1 36.3813 101.28 36.3813 98C36.3813 94.72 37.0413 91.92 38.3613 89.6C39.7213 87.24 41.6013 85.46 44.0013 84.26C46.4013 83.02 49.1413 82.4 52.2213 82.4ZM52.2213 89.66C51.0613 89.66 50.0613 89.94 49.2213 90.5C48.3813 91.06 47.7413 91.96 47.3013 93.2C46.8613 94.44 46.6413 96.04 46.6413 98C46.6413 99.96 46.8613 101.56 47.3013 102.8C47.7413 104 48.3813 104.9 49.2213 105.5C50.0613 106.06 51.0613 106.34 52.2213 106.34C53.4213 106.34 54.4413 106.06 55.2813 105.5C56.1213 104.9 56.7613 104 57.2013 102.8C57.6413 101.56 57.8613 99.96 57.8613 98C57.8613 96.04 57.6413 94.44 57.2013 93.2C56.7613 91.96 56.1213 91.06 55.2813 90.5C54.4413 89.94 53.4213 89.66 52.2213 89.66ZM83.9992 113.6C81.9592 113.6 80.1592 113.26 78.5992 112.58C77.0792 111.86 75.8792 110.72 74.9992 109.16C74.1192 107.6 73.6792 105.56 73.6792 103.04V83H83.8792V100.64C83.8792 102.56 84.2592 103.9 85.0192 104.66C85.7792 105.42 86.8592 105.8 88.2592 105.8C88.9792 105.8 89.6592 105.68 90.2992 105.44C90.9392 105.16 91.4992 104.76 91.9792 104.24C92.4592 103.68 92.8192 102.98 93.0592 102.14C93.3392 101.26 93.4792 100.24 93.4792 99.08V83H103.679V113H94.5592L94.2592 107.36C93.2992 109.48 91.9592 111.06 90.2392 112.1C88.5192 113.1 86.4392 113.6 83.9992 113.6ZM111.008 113V83H120.008L120.428 89.48C121.188 87.24 122.308 85.5 123.788 84.26C125.308 83.02 127.228 82.4 129.548 82.4C130.308 82.4 130.948 82.46 131.468 82.58C132.028 82.7 132.468 82.86 132.788 83.06L131.768 91.46C131.368 91.3 130.848 91.18 130.208 91.1C129.608 90.98 128.868 90.92 127.988 90.92C126.788 90.92 125.668 91.18 124.628 91.7C123.588 92.22 122.748 93 122.108 94.04C121.508 95.04 121.208 96.32 121.208 97.88V113H111.008ZM172.279 113.6C170.319 113.6 168.579 113.16 167.059 112.28C165.579 111.4 164.359 110.2 163.399 108.68C162.439 107.12 161.819 105.36 161.539 103.4L162.499 102.14L161.959 113H153.019V70.28H163.219V92.42L162.259 90.98C162.819 88.5 163.959 86.46 165.679 84.86C167.399 83.22 169.719 82.4 172.639 82.4C174.959 82.4 177.019 83.02 178.819 84.26C180.659 85.5 182.079 87.3 183.079 89.66C184.119 91.98 184.639 94.8 184.639 98.12C184.639 101.36 184.119 104.14 183.079 106.46C182.039 108.78 180.599 110.56 178.759 111.8C176.919 113 174.759 113.6 172.279 113.6ZM168.739 106.1C170.499 106.1 171.879 105.46 172.879 104.18C173.879 102.86 174.379 100.8 174.379 98C174.379 95.2 173.879 93.16 172.879 91.88C171.879 90.56 170.499 89.9 168.739 89.9C167.579 89.9 166.579 90.24 165.739 90.92C164.939 91.56 164.319 92.48 163.879 93.68C163.439 94.88 163.219 96.34 163.219 98.06C163.219 99.78 163.439 101.24 163.879 102.44C164.319 103.64 164.959 104.56 165.799 105.2C166.639 105.8 167.619 106.1 168.739 106.1ZM204.917 82.4C208.077 82.4 210.837 83.02 213.197 84.26C215.597 85.46 217.457 87.24 218.777 89.6C220.137 91.92 220.817 94.72 220.817 98C220.817 101.28 220.137 104.1 218.777 106.46C217.457 108.78 215.597 110.56 213.197 111.8C210.837 113 208.077 113.6 204.917 113.6C201.837 113.6 199.097 113 196.697 111.8C194.297 110.56 192.417 108.78 191.057 106.46C189.737 104.1 189.077 101.28 189.077 98C189.077 94.72 189.737 91.92 191.057 89.6C192.417 87.24 194.297 85.46 196.697 84.26C199.097 83.02 201.837 82.4 204.917 82.4ZM204.917 89.66C203.757 89.66 202.757 89.94 201.917 90.5C201.077 91.06 200.437 91.96 199.997 93.2C199.557 94.44 199.337 96.04 199.337 98C199.337 99.96 199.557 101.56 199.997 102.8C200.437 104 201.077 104.9 201.917 105.5C202.757 106.06 203.757 106.34 204.917 106.34C206.117 106.34 207.137 106.06 207.977 105.5C208.817 104.9 209.457 104 209.897 102.8C210.337 101.56 210.557 99.96 210.557 98C210.557 96.04 210.337 94.44 209.897 93.2C209.457 91.96 208.817 91.06 207.977 90.5C207.137 89.94 206.117 89.66 204.917 89.66ZM237.595 113.6C235.115 113.6 232.935 113 231.055 111.8C229.215 110.56 227.775 108.78 226.735 106.46C225.735 104.14 225.235 101.36 225.235 98.12C225.235 94.76 225.755 91.92 226.795 89.6C227.875 87.28 229.355 85.5 231.235 84.26C233.155 83.02 235.355 82.4 237.835 82.4C240.555 82.4 242.735 83.24 244.375 84.92C246.055 86.56 247.135 88.66 247.615 91.22L246.655 92.48V70.28H256.855V113H247.735L247.075 102.8L248.275 103.7C248.035 105.7 247.415 107.44 246.415 108.92C245.455 110.4 244.215 111.56 242.695 112.4C241.215 113.2 239.515 113.6 237.595 113.6ZM241.135 106.1C242.295 106.1 243.275 105.8 244.075 105.2C244.915 104.56 245.555 103.62 245.995 102.38C246.435 101.14 246.655 99.62 246.655 97.82C246.655 96.14 246.435 94.72 245.995 93.56C245.595 92.36 244.975 91.46 244.135 90.86C243.335 90.22 242.355 89.9 241.195 89.9C239.435 89.9 238.035 90.56 236.995 91.88C235.995 93.16 235.495 95.2 235.495 98C235.495 100.8 235.995 102.86 236.995 104.18C237.995 105.46 239.375 106.1 241.135 106.1ZM294.352 83L283.432 113C282.312 116.16 281.092 118.68 279.772 120.56C278.452 122.44 276.892 123.8 275.092 124.64C273.292 125.48 271.132 125.9 268.612 125.9C266.932 125.9 265.392 125.72 263.992 125.36C262.592 125 261.372 124.5 260.332 123.86L262.372 116.96C263.092 117.48 263.852 117.84 264.652 118.04C265.452 118.28 266.472 118.4 267.712 118.4C268.872 118.4 269.812 118.2 270.532 117.8C271.292 117.4 271.892 116.64 272.332 115.52L273.112 113.66L269.632 105.5L260.632 83H271.852L276.472 100.1L277.912 106.46L279.592 99.86L284.212 83H294.352ZM313.801 113V70.28H324.001V88.46C324.881 86.46 326.141 84.96 327.781 83.96C329.421 82.92 331.321 82.4 333.481 82.4C335.561 82.4 337.361 82.8 338.881 83.6C340.441 84.4 341.661 85.58 342.541 87.14C343.421 88.7 343.861 90.66 343.861 93.02V113H333.661V95.84C333.661 93.68 333.261 92.2 332.461 91.4C331.701 90.56 330.681 90.14 329.401 90.14C328.441 90.14 327.541 90.38 326.701 90.86C325.861 91.34 325.201 92.1 324.721 93.14C324.241 94.18 324.001 95.54 324.001 97.22V113H313.801ZM365.288 82.4C368.448 82.4 371.208 83.02 373.568 84.26C375.968 85.46 377.828 87.24 379.148 89.6C380.508 91.92 381.188 94.72 381.188 98C381.188 101.28 380.508 104.1 379.148 106.46C377.828 108.78 375.968 110.56 373.568 111.8C371.208 113 368.448 113.6 365.288 113.6C362.208 113.6 359.468 113 357.068 111.8C354.668 110.56 352.788 108.78 351.428 106.46C350.108 104.1 349.448 101.28 349.448 98C349.448 94.72 350.108 91.92 351.428 89.6C352.788 87.24 354.668 85.46 357.068 84.26C359.468 83.02 362.208 82.4 365.288 82.4ZM365.288 89.66C364.128 89.66 363.128 89.94 362.288 90.5C361.448 91.06 360.808 91.96 360.368 93.2C359.928 94.44 359.708 96.04 359.708 98C359.708 99.96 359.928 101.56 360.368 102.8C360.808 104 361.448 104.9 362.288 105.5C363.128 106.06 364.128 106.34 365.288 106.34C366.488 106.34 367.508 106.06 368.348 105.5C369.188 104.9 369.828 104 370.268 102.8C370.708 101.56 370.928 99.96 370.928 98C370.928 96.04 370.708 94.44 370.268 93.2C369.828 91.96 369.188 91.06 368.348 90.5C367.508 89.94 366.488 89.66 365.288 89.66ZM397.006 70.28V102.8C397.006 104.12 397.226 105.06 397.666 105.62C398.106 106.18 398.846 106.46 399.886 106.46C400.486 106.46 400.986 106.42 401.386 106.34C401.786 106.26 402.266 106.14 402.826 105.98L402.166 112.1C401.446 112.54 400.506 112.9 399.346 113.18C398.186 113.46 397.046 113.6 395.926 113.6C392.726 113.6 390.406 112.86 388.966 111.38C387.526 109.9 386.806 107.48 386.806 104.12V70.28H397.006ZM411.655 79.52C409.575 79.52 408.055 79.14 407.095 78.38C406.175 77.58 405.715 76.34 405.715 74.66C405.715 72.94 406.175 71.7 407.095 70.94C408.055 70.14 409.575 69.74 411.655 69.74C413.695 69.74 415.195 70.14 416.155 70.94C417.115 71.7 417.595 72.94 417.595 74.66C417.595 76.34 417.115 77.58 416.155 78.38C415.195 79.14 413.695 79.52 411.655 79.52ZM416.755 83V113H406.555V83H416.755ZM436.615 113.6C433.615 113.6 430.815 113.12 428.215 112.16C425.655 111.16 423.535 109.74 421.855 107.9L426.655 102.26C427.655 103.54 428.975 104.62 430.615 105.5C432.295 106.34 434.155 106.76 436.195 106.76C437.435 106.76 438.455 106.58 439.255 106.22C440.055 105.86 440.455 105.3 440.455 104.54C440.455 103.98 440.255 103.54 439.855 103.22C439.455 102.86 438.655 102.56 437.455 102.32L433.255 101.48C429.495 100.72 426.815 99.6 425.215 98.12C423.655 96.6 422.875 94.62 422.875 92.18C422.875 90.54 423.375 88.98 424.375 87.5C425.375 85.98 426.915 84.76 428.995 83.84C431.075 82.88 433.735 82.4 436.975 82.4C440.015 82.4 442.695 82.84 445.015 83.72C447.335 84.6 449.175 85.88 450.535 87.56L445.675 93.08C444.715 91.88 443.475 90.94 441.955 90.26C440.435 89.58 438.915 89.24 437.395 89.24C436.435 89.24 435.615 89.34 434.935 89.54C434.295 89.7 433.815 89.94 433.495 90.26C433.175 90.58 433.015 90.98 433.015 91.46C433.015 91.98 433.255 92.44 433.735 92.84C434.255 93.2 435.195 93.52 436.555 93.8L442.015 94.88C445.095 95.44 447.315 96.46 448.675 97.94C450.035 99.42 450.715 101.2 450.715 103.28C450.715 105.24 450.195 107 449.155 108.56C448.115 110.12 446.555 111.36 444.475 112.28C442.395 113.16 439.775 113.6 436.615 113.6ZM468.548 73.46V102.32C468.548 103.76 468.888 104.8 469.568 105.44C470.288 106.04 471.268 106.34 472.508 106.34C473.468 106.34 474.288 106.24 474.968 106.04C475.688 105.8 476.328 105.46 476.888 105.02L477.968 111.32C476.968 112.04 475.708 112.6 474.188 113C472.668 113.4 471.108 113.6 469.508 113.6C467.228 113.6 465.248 113.28 463.568 112.64C461.928 112 460.648 110.98 459.728 109.58C458.848 108.18 458.388 106.32 458.348 104V76.28L468.548 73.46ZM477.488 83V90.26H453.188V83H477.488ZM487.299 79.52C485.219 79.52 483.699 79.14 482.739 78.38C481.819 77.58 481.359 76.34 481.359 74.66C481.359 72.94 481.819 71.7 482.739 70.94C483.699 70.14 485.219 69.74 487.299 69.74C489.339 69.74 490.839 70.14 491.799 70.94C492.759 71.7 493.239 72.94 493.239 74.66C493.239 76.34 492.759 77.58 491.799 78.38C490.839 79.14 489.339 79.52 487.299 79.52ZM492.399 83V113H482.199V83H492.399ZM513.88 82.4C516.92 82.4 519.44 82.84 521.44 83.72C523.48 84.56 525.06 85.7 526.18 87.14C527.34 88.54 528.06 90.06 528.34 91.7L518.92 94.82C518.64 93.1 518.12 91.82 517.36 90.98C516.64 90.1 515.58 89.66 514.18 89.66C512.9 89.66 511.82 89.96 510.94 90.56C510.1 91.12 509.46 92.04 509.02 93.32C508.58 94.56 508.36 96.16 508.36 98.12C508.36 100.08 508.6 101.68 509.08 102.92C509.56 104.12 510.24 105 511.12 105.56C512 106.08 513.04 106.34 514.24 106.34C515.24 106.34 516.06 106.16 516.7 105.8C517.38 105.4 517.94 104.84 518.38 104.12C518.82 103.4 519.1 102.52 519.22 101.48L528.4 104.42C528.12 106.18 527.36 107.76 526.12 109.16C524.92 110.52 523.32 111.6 521.32 112.4C519.32 113.2 516.98 113.6 514.3 113.6C511.02 113.6 508.16 113 505.72 111.8C503.28 110.56 501.4 108.78 500.08 106.46C498.76 104.1 498.1 101.28 498.1 98C498.1 94.72 498.76 91.92 500.08 89.6C501.4 87.24 503.24 85.46 505.6 84.26C508 83.02 510.76 82.4 513.88 82.4ZM550.443 93.98C550.443 92.58 550.043 91.48 549.243 90.68C548.483 89.84 547.443 89.42 546.123 89.42C544.803 89.42 543.663 89.76 542.703 90.44C541.783 91.08 541.143 92.24 540.783 93.92L532.143 91.88C532.703 89 534.183 86.7 536.583 84.98C538.983 83.26 542.363 82.4 546.723 82.4C549.643 82.4 552.123 82.84 554.163 83.72C556.243 84.56 557.823 85.84 558.903 87.56C560.023 89.24 560.583 91.32 560.583 93.8V104.78C560.583 106.34 561.283 107.12 562.683 107.12C563.403 107.12 563.983 107.04 564.423 106.88L563.823 112.7C562.623 113.26 561.163 113.54 559.443 113.54C557.883 113.54 556.503 113.3 555.303 112.82C554.103 112.3 553.163 111.54 552.483 110.54C551.803 109.5 551.463 108.2 551.463 106.64V106.28L552.603 105.86C552.603 107.58 552.083 109.02 551.043 110.18C550.043 111.34 548.723 112.2 547.083 112.76C545.483 113.32 543.803 113.6 542.043 113.6C540.003 113.6 538.223 113.28 536.703 112.64C535.183 112 534.003 111.08 533.163 109.88C532.363 108.64 531.963 107.12 531.963 105.32C531.963 103.16 532.603 101.38 533.883 99.98C535.203 98.54 537.263 97.54 540.063 96.98L551.403 94.64L551.343 100.04L545.583 101.24C544.383 101.48 543.483 101.84 542.883 102.32C542.323 102.76 542.043 103.44 542.043 104.36C542.043 105.24 542.363 105.9 543.003 106.34C543.643 106.78 544.403 107 545.283 107C545.963 107 546.603 106.9 547.203 106.7C547.843 106.5 548.403 106.2 548.883 105.8C549.363 105.36 549.743 104.82 550.023 104.18C550.303 103.54 550.443 102.78 550.443 101.9V93.98ZM578.529 70.28V102.8C578.529 104.12 578.749 105.06 579.189 105.62C579.629 106.18 580.369 106.46 581.409 106.46C582.009 106.46 582.509 106.42 582.909 106.34C583.309 106.26 583.789 106.14 584.349 105.98L583.689 112.1C582.969 112.54 582.029 112.9 580.869 113.18C579.709 113.46 578.569 113.6 577.449 113.6C574.249 113.6 571.929 112.86 570.489 111.38C569.049 109.9 568.329 107.48 568.329 104.12V70.28H578.529ZM598.158 70.28V102.8C598.158 104.12 598.378 105.06 598.818 105.62C599.258 106.18 599.998 106.46 601.038 106.46C601.638 106.46 602.138 106.42 602.538 106.34C602.938 106.26 603.418 106.14 603.978 105.98L603.318 112.1C602.598 112.54 601.658 112.9 600.498 113.18C599.338 113.46 598.198 113.6 597.078 113.6C593.878 113.6 591.558 112.86 590.118 111.38C588.678 109.9 587.958 107.48 587.958 104.12V70.28H598.158ZM636.891 83L625.971 113C624.851 116.16 623.631 118.68 622.311 120.56C620.991 122.44 619.431 123.8 617.631 124.64C615.831 125.48 613.671 125.9 611.151 125.9C609.471 125.9 607.931 125.72 606.531 125.36C605.131 125 603.911 124.5 602.871 123.86L604.911 116.96C605.631 117.48 606.391 117.84 607.191 118.04C607.991 118.28 609.011 118.4 610.251 118.4C611.411 118.4 612.351 118.2 613.071 117.8C613.831 117.4 614.431 116.64 614.871 115.52L615.651 113.66L612.171 105.5L603.171 83H614.391L619.011 100.1L620.451 106.46L622.131 99.86L626.751 83H636.891Z" fill="black"/>
</svg>
