<?xml version="1.0" encoding="iso-8859-1"?>
<!-- Generator: Adobe Illustrator 19.0.0, SVG Export Plug-In . SVG Version: 6.00 Build 0)  -->
<svg version="1.1" id="Layer_1" xmlns="http://www.w3.org/2000/svg" xmlns:xlink="http://www.w3.org/1999/xlink" x="0px" y="0px"
	 viewBox="0 0 500 500" style="enable-background:new 0 0 500 500;" xml:space="preserve">
<g>
	<g>
		<path d="M405.952,78.51c-25.308,0-44.248,12.368-60.944,23.268l-3.388,2.204c-21.084,13.752-44.988,29.328-91.612,29.328
			c-46.664,0-70.592-15.616-91.704-29.388l-3.312-2.168c-16.696-10.888-35.632-23.248-60.92-23.248
			C42.196,78.51,0,120.714,0,172.586c0,27.984,12.336,54.328,33.86,72.292c1.288,1.08,2.724,1.916,4.216,2.608
			c3.24,9.58,9.768,17.544,18.692,22.6c6.216,3.524,13.26,5.392,20.364,5.392c10.132,0,19.848-3.732,27.352-10.504
			c2.444-2.204,4.136-5.196,4.764-8.428c1.16-5.988,0.944-12.292-0.62-18.212c-2.86-10.772-9.792-19.748-19.532-25.268
			c-6.228-3.54-13.284-5.424-20.404-5.424c-4.988,0-9.872,0.916-14.432,2.648c-4.316-5.292-15.232-20.416-15.232-37.704
			c0-30.36,24.692-55.056,55.044-55.056c10.576,0,20.256,4.692,31.516,11.728c20.796,13.224,22.764,24.628,26.68,47.348
			c2.544,14.768,5.712,33.148,15.312,54.84c10.868,24.584,24.548,41.528,36.64,56.472c15.812,19.572,26.248,32.492,26.248,55.24
			v58.82c0,10.764,8.772,19.516,19.532,19.516s19.532-8.752,19.532-19.516v-58.82c0-22.752,10.456-35.684,26.28-55.26
			c12.076-14.936,25.752-31.868,36.628-56.44c9.596-21.692,12.756-40.064,15.296-54.824c3.912-22.7,5.884-34.096,26.552-47.272
			c11.34-7.092,21.06-11.824,31.664-11.824c30.336,0,55.02,24.696,55.02,55.056c0,14.348-5.436,27.708-15.252,37.96
			c-4.752-1.892-9.864-2.908-15.084-2.908c-7.112,0-14.172,1.888-20.396,5.416c-9.744,5.524-16.676,14.504-19.536,25.276
			c-1.568,5.924-1.78,12.224-0.62,18.212c0.624,3.228,2.316,6.228,4.756,8.42c7.516,6.78,17.228,10.512,27.36,10.512
			c7.1,0,14.148-1.868,20.364-5.392c8.824-5.008,15.316-12.848,18.592-22.292c1.772-0.744,3.46-1.648,4.964-2.912
			c21.532-17.916,33.88-44.264,33.88-72.3C500,120.714,457.808,78.51,405.952,78.51z"/>
	</g>
</g>
<g>
</g>
<g>
</g>
<g>
</g>
<g>
</g>
<g>
</g>
<g>
</g>
<g>
</g>
<g>
</g>
<g>
</g>
<g>
</g>
<g>
</g>
<g>
</g>
<g>
</g>
<g>
</g>
<g>
</g>
</svg>
